<svg width="376" height="103" viewBox="0 0 376 103" fill="none" xmlns="http://www.w3.org/2000/svg">
<g clip-path="url(#clip0_34_46)">
<g opacity="0.65">
<path d="M89.6 95.1L52 51.9C51 50.8 51.1 49.2 52 48.1L89.3 7.5C91.2 5.4 89.7 2 86.9 2H62.1C59.6 2 57.2 3.1 55.5 5L34.7 28.6C33.6 29.9 31.5 29.1 31.5 27.4V4.7C31.5 3.2 30.3 2 28.8 2H4.7C3.2 2 2 3.2 2 4.7V97.6C2 99.1 3.2 100.3 4.7 100.3H28.9C30.4 100.3 31.6 99.1 31.6 97.6V71.9C31.6 70.2 33.8 69.4 34.9 70.8L55.6 97.1C57.3 99.2 59.8 100.4 62.5 100.4H87.3C89.9 100.5 91.4 97.2 89.6 95.1Z" fill="white" stroke="#424242" stroke-width="4" stroke-miterlimit="10"/>
<path d="M196.7 100.5H175.7C173.3 100.5 171.4 98.6 171.4 96.2V6.3C171.4 3.9 173.3 2 175.7 2H196.7C199.1 2 201 3.9 201 6.3V96.2C201 98.6 199.1 100.5 196.7 100.5Z" fill="white" stroke="#424242" stroke-width="4" stroke-miterlimit="10"/>
<path d="M125 70.3V6.3C125 3.9 123.1 2 120.7 2H99.7C97.3 2 95.4 3.9 95.4 6.3V74.6V96.2C95.4 98.6 97.3 100.5 99.7 100.5H124.9H162.2C164.6 100.5 166.5 98.6 166.5 96.2V78.9C166.5 76.5 164.6 74.6 162.2 74.6H129.2C126.9 74.6 125 72.7 125 70.3Z" fill="white" stroke="#424242" stroke-width="4" stroke-miterlimit="10"/>
<path d="M247.3 2C246.2 2 243.9 2 243.8 2H233.4H210.3C207.9 2 206 3.9 206 6.3V96.2C206 98.6 207.9 100.5 210.3 100.5H231.3C233.7 100.5 235.6 98.6 235.6 96.2V71.4C235.6 70.6 236.3 70.1 237 70.3C247.5 73.4 261.3 73.7 273.2 61.9C298.5 36.6 274.6 2 247.3 2ZM254.7 45.1C243.5 53 231.1 40.6 239 29.4C239.3 29 239.6 28.7 240 28.4C251.2 20.5 263.6 32.9 255.7 44.1C255.4 44.6 255 44.9 254.7 45.1Z" fill="white" stroke="#424242" stroke-width="4" stroke-miterlimit="10"/>
<path d="M372 17.6L357.6 3.2C356 1.6 353.4 1.6 351.7 3.2L328.7 26.2C328.1 26.8 327 26.8 326.4 26.2L303.4 3.2C301.8 1.6 299.2 1.6 297.5 3.2L283.1 17.6C281.5 19.2 281.5 21.8 283.1 23.5L312.7 53.1C313 53.4 313.2 53.9 313.2 54.3V96.4C313.2 98.7 315.1 100.5 317.3 100.5H337.7C340 100.5 341.8 98.6 341.8 96.4V54.3C341.8 53.8 342 53.4 342.3 53.1L371.9 23.5C373.6 21.9 373.6 19.2 372 17.6Z" fill="white" stroke="#424242" stroke-width="4" stroke-miterlimit="10"/>
</g>
</g>
<defs>
<clipPath id="clip0_34_46">
<rect width="375.1" height="102.5" fill="white"/>
</clipPath>
</defs>
</svg>
